<svg width="1402" height="2226" viewBox="0 0 1402 2226" fill="none" xmlns="http://www.w3.org/2000/svg">
<mask id="mask0_78_280" style="mask-type:luminance" maskUnits="userSpaceOnUse" x="701" y="0" width="701" height="1097">
<path d="M1402 1097V0L701 0L701 1097H1402Z" fill="white"/>
</mask>
<g mask="url(#mask0_78_280)">
<g opacity="0.2">
<path d="M1420.31 0.238346L685.811 0.238281" stroke="white" stroke-width="1.6013"/>
<path d="M1420.31 30.7169L685.811 30.7168" stroke="white" stroke-width="1.6013"/>
<path d="M1420.31 61.1934H685.811" stroke="white" stroke-width="1.6013"/>
<path d="M1420.31 91.67L685.811 91.6699" stroke="white" stroke-width="1.6013"/>
<path d="M1420.31 122.146H685.811" stroke="white" stroke-width="1.6013"/>
<path d="M1420.31 152.625H685.811" stroke="white" stroke-width="1.6013"/>
<path d="M1420.31 183.102H685.811" stroke="white" stroke-width="1.6013"/>
<path d="M1420.31 213.578H685.811" stroke="white" stroke-width="1.6013"/>
<path d="M1420.31 244.058L685.811 244.057" stroke="white" stroke-width="1.6013"/>
<path d="M1420.31 274.533H685.811" stroke="white" stroke-width="1.6013"/>
<path d="M1420.31 305.012H685.811" stroke="white" stroke-width="1.6013"/>
<path d="M1420.31 335.486H685.811" stroke="white" stroke-width="1.6013"/>
<path d="M1420.31 365.965H685.811" stroke="white" stroke-width="1.6013"/>
<path d="M1420.31 396.441H685.811" stroke="white" stroke-width="1.6013"/>
<path d="M1420.31 426.918H685.811" stroke="white" stroke-width="1.6013"/>
<path d="M1420.31 457.396H685.811" stroke="white" stroke-width="1.6013"/>
<path d="M1420.31 487.873H685.811" stroke="white" stroke-width="1.6013"/>
<path d="M1420.31 518.35H685.811" stroke="white" stroke-width="1.6013"/>
<path d="M1420.31 548.826H685.811" stroke="white" stroke-width="1.6013"/>
<path d="M1420.31 579.305H685.811" stroke="white" stroke-width="1.6013"/>
<path d="M1420.31 609.781H685.811" stroke="white" stroke-width="1.6013"/>
<path d="M1420.31 640.258H685.811" stroke="white" stroke-width="1.6013"/>
<path d="M1420.31 670.736H685.811" stroke="white" stroke-width="1.6013"/>
<path d="M1420.31 701.213H685.811" stroke="white" stroke-width="1.6013"/>
<path d="M1420.31 731.689H685.811" stroke="white" stroke-width="1.6013"/>
<path d="M1420.31 762.166H685.811" stroke="white" stroke-width="1.6013"/>
<path d="M1420.31 792.645H685.811" stroke="white" stroke-width="1.6013"/>
<path d="M1420.31 823.121H685.811" stroke="white" stroke-width="1.6013"/>
<path d="M1420.31 853.599L685.811 853.598" stroke="white" stroke-width="1.6013"/>
<path d="M1420.31 884.076H685.811" stroke="white" stroke-width="1.6013"/>
<path d="M1420.31 914.553H685.811" stroke="white" stroke-width="1.6013"/>
<path d="M1420.31 945.029H685.811" stroke="white" stroke-width="1.6013"/>
<path d="M1420.31 975.506H685.811" stroke="white" stroke-width="1.6013"/>
<path d="M1420.31 1005.98H685.811" stroke="white" stroke-width="1.6013"/>
<path d="M1420.31 1036.46H685.811" stroke="white" stroke-width="1.6013"/>
<path d="M1420.31 1066.94H685.811" stroke="white" stroke-width="1.6013"/>
<path d="M1420.31 1097.42H685.811" stroke="white" stroke-width="1.6013"/>
<path d="M1401.22 1153.56V-47.2363" stroke="white" stroke-width="1.6013"/>
<path d="M1370.74 1153.56V-47.2363" stroke="white" stroke-width="1.6013"/>
<path d="M1340.27 1153.56V-47.2363" stroke="white" stroke-width="1.6013"/>
<path d="M1309.79 1153.56V-47.2363" stroke="white" stroke-width="1.6013"/>
<path d="M1279.31 1153.56V-47.2363" stroke="white" stroke-width="1.6013"/>
<path d="M1248.83 1153.56V-47.2363" stroke="white" stroke-width="1.6013"/>
<path d="M1218.36 1153.56V-47.2363" stroke="white" stroke-width="1.6013"/>
<path d="M1187.88 1153.56V-47.2363" stroke="white" stroke-width="1.6013"/>
<path d="M1157.4 1153.56V-47.2363" stroke="white" stroke-width="1.6013"/>
<path d="M1126.93 1153.56V-47.2363" stroke="white" stroke-width="1.6013"/>
<path d="M1096.45 1153.56V-47.2363" stroke="white" stroke-width="1.6013"/>
<path d="M1065.97 1153.56V-47.2363" stroke="white" stroke-width="1.6013"/>
<path d="M1035.49 1153.56V-47.2363" stroke="white" stroke-width="1.6013"/>
<path d="M1005.02 1153.56V-47.2363" stroke="white" stroke-width="1.6013"/>
<path d="M974.539 1153.56V-47.2363" stroke="white" stroke-width="1.6013"/>
<path d="M944.062 1153.56V-47.2363" stroke="white" stroke-width="1.6013"/>
<path d="M913.586 1153.56V-47.2363" stroke="white" stroke-width="1.6013"/>
<path d="M883.105 1153.56V-47.2363" stroke="white" stroke-width="1.6013"/>
<path d="M852.629 1153.56V-47.2363" stroke="white" stroke-width="1.6013"/>
<path d="M822.151 1153.56L822.152 -47.2363" stroke="white" stroke-width="1.6013"/>
<path d="M791.676 1153.56V-47.2363" stroke="white" stroke-width="1.6013"/>
<path d="M761.198 1153.56V-47.2363" stroke="white" stroke-width="1.6013"/>
<path d="M730.723 1153.56V-47.2363" stroke="white" stroke-width="1.6013"/>
<path d="M700.245 1153.56V-47.2363" stroke="white" stroke-width="1.6013"/>
</g>
</g>
<mask id="mask1_78_280" style="mask-type:luminance" maskUnits="userSpaceOnUse" x="701" y="1097" width="701" height="1111">
<path d="M1402 2208V1097H701L701 2208H1402Z" fill="white"/>
</mask>
<g mask="url(#mask1_78_280)">
<g opacity="0.2">
<path d="M1420.31 1097.24H685.811" stroke="white" stroke-width="1.6013"/>
<path d="M1420.31 1127.72H685.811" stroke="white" stroke-width="1.6013"/>
<path d="M1420.31 1158.19H685.811" stroke="white" stroke-width="1.6013"/>
<path d="M1420.31 1188.67H685.811" stroke="white" stroke-width="1.6013"/>
<path d="M1420.31 1219.15H685.811" stroke="white" stroke-width="1.6013"/>
<path d="M1420.31 1249.62H685.811" stroke="white" stroke-width="1.6013"/>
<path d="M1420.31 1280.1H685.811" stroke="white" stroke-width="1.6013"/>
<path d="M1420.31 1310.58H685.811" stroke="white" stroke-width="1.6013"/>
<path d="M1420.31 1341.06H685.811" stroke="white" stroke-width="1.6013"/>
<path d="M1420.31 1371.53H685.811" stroke="white" stroke-width="1.6013"/>
<path d="M1420.31 1402.01H685.811" stroke="white" stroke-width="1.6013"/>
<path d="M1420.31 1432.49H685.811" stroke="white" stroke-width="1.6013"/>
<path d="M1420.31 1462.96H685.811" stroke="white" stroke-width="1.6013"/>
<path d="M1420.31 1493.44H685.811" stroke="white" stroke-width="1.6013"/>
<path d="M1420.31 1523.92H685.811" stroke="white" stroke-width="1.6013"/>
<path d="M1420.31 1554.4H685.811" stroke="white" stroke-width="1.6013"/>
<path d="M1420.31 1584.87H685.811" stroke="white" stroke-width="1.6013"/>
<path d="M1420.31 1615.35H685.811" stroke="white" stroke-width="1.6013"/>
<path d="M1420.31 1645.83H685.811" stroke="white" stroke-width="1.6013"/>
<path d="M1420.31 1676.3H685.811" stroke="white" stroke-width="1.6013"/>
<path d="M1420.31 1706.78H685.811" stroke="white" stroke-width="1.6013"/>
<path d="M1420.31 1737.26H685.811" stroke="white" stroke-width="1.6013"/>
<path d="M1420.31 1767.74H685.811" stroke="white" stroke-width="1.6013"/>
<path d="M1420.31 1798.21H685.811" stroke="white" stroke-width="1.6013"/>
<path d="M1420.31 1828.69H685.811" stroke="white" stroke-width="1.6013"/>
<path d="M1420.31 1859.17H685.811" stroke="white" stroke-width="1.6013"/>
<path d="M1420.31 1889.64H685.811" stroke="white" stroke-width="1.6013"/>
<path d="M1420.31 1920.12H685.811" stroke="white" stroke-width="1.6013"/>
<path d="M1420.31 1950.6H685.811" stroke="white" stroke-width="1.6013"/>
<path d="M1420.31 1981.08H685.811" stroke="white" stroke-width="1.6013"/>
<path d="M1420.31 2011.55H685.811" stroke="white" stroke-width="1.6013"/>
<path d="M1420.31 2042.03H685.811" stroke="white" stroke-width="1.6013"/>
<path d="M1420.31 2072.51H685.811" stroke="white" stroke-width="1.6013"/>
<path d="M1420.31 2102.98H685.811" stroke="white" stroke-width="1.6013"/>
<path d="M1420.31 2133.46H685.811" stroke="white" stroke-width="1.6013"/>
<path d="M1420.31 2163.94H685.811" stroke="white" stroke-width="1.6013"/>
<path d="M1420.31 2194.42H685.811" stroke="white" stroke-width="1.6013"/>
<path d="M1401.22 2250.56V1049.76" stroke="white" stroke-width="1.6013"/>
<path d="M1370.75 2250.56V1049.76" stroke="white" stroke-width="1.6013"/>
<path d="M1340.27 2250.56V1049.76" stroke="white" stroke-width="1.6013"/>
<path d="M1309.79 2250.56V1049.76" stroke="white" stroke-width="1.6013"/>
<path d="M1279.31 2250.56V1049.76" stroke="white" stroke-width="1.6013"/>
<path d="M1248.84 2250.56V1049.76" stroke="white" stroke-width="1.6013"/>
<path d="M1218.36 2250.56V1049.76" stroke="white" stroke-width="1.6013"/>
<path d="M1187.88 2250.56V1049.76" stroke="white" stroke-width="1.6013"/>
<path d="M1157.41 2250.56V1049.76" stroke="white" stroke-width="1.6013"/>
<path d="M1126.93 2250.56V1049.76" stroke="white" stroke-width="1.6013"/>
<path d="M1096.45 2250.56V1049.76" stroke="white" stroke-width="1.6013"/>
<path d="M1065.97 2250.56V1049.76" stroke="white" stroke-width="1.6013"/>
<path d="M1035.5 2250.56V1049.76" stroke="white" stroke-width="1.6013"/>
<path d="M1005.02 2250.56V1049.76" stroke="white" stroke-width="1.6013"/>
<path d="M974.543 2250.56V1049.76" stroke="white" stroke-width="1.6013"/>
<path d="M944.066 2250.56V1049.76" stroke="white" stroke-width="1.6013"/>
<path d="M913.59 2250.56V1049.76" stroke="white" stroke-width="1.6013"/>
<path d="M883.109 2250.56V1049.76" stroke="white" stroke-width="1.6013"/>
<path d="M852.633 2250.56V1049.76" stroke="white" stroke-width="1.6013"/>
<path d="M822.155 2250.56V1049.76" stroke="white" stroke-width="1.6013"/>
<path d="M791.68 2250.56V1049.76" stroke="white" stroke-width="1.6013"/>
<path d="M761.202 2250.56V1049.76" stroke="white" stroke-width="1.6013"/>
<path d="M730.727 2250.56V1049.76" stroke="white" stroke-width="1.6013"/>
<path d="M700.25 2250.56V1049.76" stroke="white" stroke-width="1.6013"/>
</g>
</g>
<mask id="mask2_78_280" style="mask-type:luminance" maskUnits="userSpaceOnUse" x="0" y="0" width="701" height="1097">
<path d="M701 1097L701 0L0 0L0 1097H701Z" fill="white"/>
</mask>
<g mask="url(#mask2_78_280)">
<g opacity="0.2">
<path d="M719.309 0.238346L-15.1895 0.238281" stroke="white" stroke-width="1.6013"/>
<path d="M719.309 30.7169L-15.1895 30.7168" stroke="white" stroke-width="1.6013"/>
<path d="M719.309 61.1934H-15.1895" stroke="white" stroke-width="1.6013"/>
<path d="M719.309 91.67L-15.1895 91.6699" stroke="white" stroke-width="1.6013"/>
<path d="M719.309 122.146H-15.1895" stroke="white" stroke-width="1.6013"/>
<path d="M719.309 152.625H-15.1895" stroke="white" stroke-width="1.6013"/>
<path d="M719.309 183.102H-15.1895" stroke="white" stroke-width="1.6013"/>
<path d="M719.309 213.578H-15.1895" stroke="white" stroke-width="1.6013"/>
<path d="M719.309 244.058L-15.1895 244.057" stroke="white" stroke-width="1.6013"/>
<path d="M719.309 274.533H-15.1895" stroke="white" stroke-width="1.6013"/>
<path d="M719.309 305.012H-15.1895" stroke="white" stroke-width="1.6013"/>
<path d="M719.309 335.486H-15.1895" stroke="white" stroke-width="1.6013"/>
<path d="M719.309 365.965H-15.1895" stroke="white" stroke-width="1.6013"/>
<path d="M719.309 396.441H-15.1895" stroke="white" stroke-width="1.6013"/>
<path d="M719.309 426.918H-15.1895" stroke="white" stroke-width="1.6013"/>
<path d="M719.309 457.396H-15.1895" stroke="white" stroke-width="1.6013"/>
<path d="M719.309 487.873H-15.1895" stroke="white" stroke-width="1.6013"/>
<path d="M719.309 518.35H-15.1895" stroke="white" stroke-width="1.6013"/>
<path d="M719.309 548.826H-15.1895" stroke="white" stroke-width="1.6013"/>
<path d="M719.309 579.305H-15.1895" stroke="white" stroke-width="1.6013"/>
<path d="M719.309 609.781H-15.1895" stroke="white" stroke-width="1.6013"/>
<path d="M719.309 640.258H-15.1895" stroke="white" stroke-width="1.6013"/>
<path d="M719.309 670.736H-15.1895" stroke="white" stroke-width="1.6013"/>
<path d="M719.309 701.213H-15.1895" stroke="white" stroke-width="1.6013"/>
<path d="M719.309 731.689H-15.1895" stroke="white" stroke-width="1.6013"/>
<path d="M719.309 762.166H-15.1895" stroke="white" stroke-width="1.6013"/>
<path d="M719.309 792.645H-15.1895" stroke="white" stroke-width="1.6013"/>
<path d="M719.309 823.121H-15.1895" stroke="white" stroke-width="1.6013"/>
<path d="M719.309 853.599L-15.1895 853.598" stroke="white" stroke-width="1.6013"/>
<path d="M719.309 884.076H-15.1895" stroke="white" stroke-width="1.6013"/>
<path d="M719.309 914.553H-15.1895" stroke="white" stroke-width="1.6013"/>
<path d="M719.309 945.029H-15.1895" stroke="white" stroke-width="1.6013"/>
<path d="M719.309 975.506H-15.1895" stroke="white" stroke-width="1.6013"/>
<path d="M719.309 1005.98H-15.1895" stroke="white" stroke-width="1.6013"/>
<path d="M719.309 1036.46H-15.1895" stroke="white" stroke-width="1.6013"/>
<path d="M719.309 1066.94H-15.1895" stroke="white" stroke-width="1.6013"/>
<path d="M719.309 1097.42H-15.1895" stroke="white" stroke-width="1.6013"/>
<path d="M700.223 1153.56V-47.2363" stroke="white" stroke-width="1.6013"/>
<path d="M669.746 1153.56V-47.2363" stroke="white" stroke-width="1.6013"/>
<path d="M639.27 1153.56V-47.2363" stroke="white" stroke-width="1.6013"/>
<path d="M608.789 1153.56V-47.2363" stroke="white" stroke-width="1.6013"/>
<path d="M578.312 1153.56V-47.2363" stroke="white" stroke-width="1.6013"/>
<path d="M547.836 1153.56V-47.2363" stroke="white" stroke-width="1.6013"/>
<path d="M517.359 1153.56V-47.2363" stroke="white" stroke-width="1.6013"/>
<path d="M486.883 1153.56V-47.2363" stroke="white" stroke-width="1.6013"/>
<path d="M456.406 1153.56L456.407 -47.2363" stroke="white" stroke-width="1.6013"/>
<path d="M425.93 1153.56V-47.2363" stroke="white" stroke-width="1.6013"/>
<path d="M395.449 1153.56V-47.2363" stroke="white" stroke-width="1.6013"/>
<path d="M364.973 1153.56V-47.2363" stroke="white" stroke-width="1.6013"/>
<path d="M334.496 1153.56V-47.2363" stroke="white" stroke-width="1.6013"/>
<path d="M304.02 1153.56V-47.2363" stroke="white" stroke-width="1.6013"/>
<path d="M273.543 1153.56V-47.2363" stroke="white" stroke-width="1.6013"/>
<path d="M243.066 1153.56V-47.2363" stroke="white" stroke-width="1.6013"/>
<path d="M212.59 1153.56V-47.2363" stroke="white" stroke-width="1.6013"/>
<path d="M182.109 1153.56V-47.2363" stroke="white" stroke-width="1.6013"/>
<path d="M151.633 1153.56V-47.2363" stroke="white" stroke-width="1.6013"/>
<path d="M121.156 1153.56V-47.2363" stroke="white" stroke-width="1.6013"/>
<path d="M90.6797 1153.56L90.6799 -47.2363" stroke="white" stroke-width="1.6013"/>
<path d="M60.2031 1153.56L60.2032 -47.2363" stroke="white" stroke-width="1.6013"/>
<path d="M29.7266 1153.56L29.7267 -47.2363" stroke="white" stroke-width="1.6013"/>
<path d="M-0.75 1153.56L-0.749894 -47.2363" stroke="white" stroke-width="1.6013"/>
</g>
</g>
<mask id="mask3_78_280" style="mask-type:luminance" maskUnits="userSpaceOnUse" x="0" y="1097" width="701" height="1111">
<path d="M701 2208L701 1097H0L0 2208H701Z" fill="white"/>
</mask>
<g mask="url(#mask3_78_280)">
<g opacity="0.2">
<path d="M719.309 1097.24H-15.1895" stroke="white" stroke-width="1.6013"/>
<path d="M719.309 1127.72H-15.1895" stroke="white" stroke-width="1.6013"/>
<path d="M719.309 1158.19H-15.1895" stroke="white" stroke-width="1.6013"/>
<path d="M719.309 1188.67H-15.1895" stroke="white" stroke-width="1.6013"/>
<path d="M719.309 1219.15H-15.1895" stroke="white" stroke-width="1.6013"/>
<path d="M719.309 1249.62H-15.1895" stroke="white" stroke-width="1.6013"/>
<path d="M719.309 1280.1H-15.1895" stroke="white" stroke-width="1.6013"/>
<path d="M719.309 1310.58H-15.1895" stroke="white" stroke-width="1.6013"/>
<path d="M719.309 1341.06H-15.1895" stroke="white" stroke-width="1.6013"/>
<path d="M719.309 1371.53H-15.1895" stroke="white" stroke-width="1.6013"/>
<path d="M719.309 1402.01H-15.1895" stroke="white" stroke-width="1.6013"/>
<path d="M719.309 1432.49H-15.1895" stroke="white" stroke-width="1.6013"/>
<path d="M719.309 1462.96H-15.1895" stroke="white" stroke-width="1.6013"/>
<path d="M719.309 1493.44H-15.1895" stroke="white" stroke-width="1.6013"/>
<path d="M719.309 1523.92H-15.1895" stroke="white" stroke-width="1.6013"/>
<path d="M719.309 1554.4H-15.1895" stroke="white" stroke-width="1.6013"/>
<path d="M719.309 1584.87H-15.1895" stroke="white" stroke-width="1.6013"/>
<path d="M719.309 1615.35H-15.1895" stroke="white" stroke-width="1.6013"/>
<path d="M719.309 1645.83H-15.1895" stroke="white" stroke-width="1.6013"/>
<path d="M719.309 1676.3H-15.1895" stroke="white" stroke-width="1.6013"/>
<path d="M719.309 1706.78H-15.1895" stroke="white" stroke-width="1.6013"/>
<path d="M719.309 1737.26H-15.1895" stroke="white" stroke-width="1.6013"/>
<path d="M719.309 1767.74H-15.1895" stroke="white" stroke-width="1.6013"/>
<path d="M719.309 1798.21H-15.1895" stroke="white" stroke-width="1.6013"/>
<path d="M719.309 1828.69H-15.1895" stroke="white" stroke-width="1.6013"/>
<path d="M719.309 1859.17H-15.1895" stroke="white" stroke-width="1.6013"/>
<path d="M719.309 1889.64H-15.1895" stroke="white" stroke-width="1.6013"/>
<path d="M719.309 1920.12H-15.1895" stroke="white" stroke-width="1.6013"/>
<path d="M719.309 1950.6H-15.1895" stroke="white" stroke-width="1.6013"/>
<path d="M719.309 1981.08H-15.1895" stroke="white" stroke-width="1.6013"/>
<path d="M719.309 2011.55H-15.1895" stroke="white" stroke-width="1.6013"/>
<path d="M719.309 2042.03H-15.1895" stroke="white" stroke-width="1.6013"/>
<path d="M719.309 2072.51H-15.1895" stroke="white" stroke-width="1.6013"/>
<path d="M719.309 2102.98H-15.1895" stroke="white" stroke-width="1.6013"/>
<path d="M719.309 2133.46H-15.1895" stroke="white" stroke-width="1.6013"/>
<path d="M719.309 2163.94H-15.1895" stroke="white" stroke-width="1.6013"/>
<path d="M719.309 2194.42H-15.1895" stroke="white" stroke-width="1.6013"/>
<path d="M700.223 2250.56V1049.76" stroke="white" stroke-width="1.6013"/>
<path d="M669.746 2250.56V1049.76" stroke="white" stroke-width="1.6013"/>
<path d="M639.27 2250.56V1049.76" stroke="white" stroke-width="1.6013"/>
<path d="M608.789 2250.56V1049.76" stroke="white" stroke-width="1.6013"/>
<path d="M578.312 2250.56V1049.76" stroke="white" stroke-width="1.6013"/>
<path d="M547.836 2250.56V1049.76" stroke="white" stroke-width="1.6013"/>
<path d="M517.359 2250.56V1049.76" stroke="white" stroke-width="1.6013"/>
<path d="M486.883 2250.56V1049.76" stroke="white" stroke-width="1.6013"/>
<path d="M456.406 2250.56L456.407 1049.76" stroke="white" stroke-width="1.6013"/>
<path d="M425.93 2250.56V1049.76" stroke="white" stroke-width="1.6013"/>
<path d="M395.449 2250.56V1049.76" stroke="white" stroke-width="1.6013"/>
<path d="M364.973 2250.56V1049.76" stroke="white" stroke-width="1.6013"/>
<path d="M334.496 2250.56V1049.76" stroke="white" stroke-width="1.6013"/>
<path d="M304.02 2250.56V1049.76" stroke="white" stroke-width="1.6013"/>
<path d="M273.543 2250.56V1049.76" stroke="white" stroke-width="1.6013"/>
<path d="M243.066 2250.56V1049.76" stroke="white" stroke-width="1.6013"/>
<path d="M212.59 2250.56V1049.76" stroke="white" stroke-width="1.6013"/>
<path d="M182.109 2250.56V1049.76" stroke="white" stroke-width="1.6013"/>
<path d="M151.633 2250.56V1049.76" stroke="white" stroke-width="1.6013"/>
<path d="M121.156 2250.56V1049.76" stroke="white" stroke-width="1.6013"/>
<path d="M90.6797 2250.56L90.6799 1049.76" stroke="white" stroke-width="1.6013"/>
<path d="M60.2031 2250.56L60.2032 1049.76" stroke="white" stroke-width="1.6013"/>
<path d="M29.7266 2250.56L29.7267 1049.76" stroke="white" stroke-width="1.6013"/>
<path d="M-0.75 2250.56L-0.749894 1049.76" stroke="white" stroke-width="1.6013"/>
</g>
</g>
</svg>
