<svg width="2433" height="2433" viewBox="0 0 2433 2433" fill="none" xmlns="http://www.w3.org/2000/svg">
<g clip-path="url(#clip0_73_18)">
<path d="M1256.18 1121.96L1950.52 230.84L2202.16 482.477L1311.04 1176.82L1309.61 1177.93L1311.41 1177.71L2432.5 1038.57V1394.43L1311.41 1255.29L1309.61 1255.07L1311.04 1256.18L2202.16 1950.52L1950.52 2202.16L1256.18 1311.04L1255.07 1309.61L1255.29 1311.41L1394.43 2432.5H1038.57L1177.71 1311.41L1177.93 1309.61L1176.82 1311.04L482.477 2202.16L230.84 1950.52L1121.96 1256.18L1123.39 1255.07L1121.59 1255.29L0.5 1394.43V1038.57L1121.59 1177.71L1123.39 1177.93L1121.96 1176.82L230.84 482.477L482.477 230.84L1176.82 1121.96L1177.93 1123.39L1177.71 1121.59L1038.57 0.5H1394.43L1255.29 1121.59L1255.07 1123.39L1256.18 1121.96Z" fill="#D94077" stroke="#D94077"/>
</g>
<defs>
<clipPath id="clip0_73_18">
<rect width="2433" height="2433" fill="white"/>
</clipPath>
</defs>
</svg>
