<svg width="184" height="183" viewBox="0 0 184 183" fill="none" xmlns="http://www.w3.org/2000/svg">
<path d="M92 2C141.716 2 182 42.0808 182 91.5C182 140.919 141.716 181 92 181C42.2841 181 2 140.919 2 91.5C2 42.0808 42.2841 2 92 2Z" fill="white" stroke="black" stroke-width="4"/>
<circle cx="91.5" cy="86.5" r="47.5" fill="black"/>
<circle cx="91.5" cy="86.5" r="47.5" stroke="black"/>
<path d="M102.5 164C23.0936 174.517 2.5 95.5 2.5 95.5C2.5 95.5 10.5 190.5 102.5 180.5C188.265 171.178 180.5 80.5 180.5 80.5C180.5 80.5 178 154 102.5 164Z" fill="#BDBDBD" stroke="#BDBDBD"/>
<path d="M92 2C141.716 2 182 42.0808 182 91.5C182 140.919 141.716 181 92 181C42.2841 181 2 140.919 2 91.5C2 42.0808 42.2841 2 92 2Z" stroke="black" stroke-width="4"/>
<circle cx="61" cy="56" r="16.25" fill="white" stroke="black" stroke-width="1.5"/>
</svg>
